<?xml version="1.0" encoding="utf-8"?>
<!-- Generator: Adobe Illustrator 24.1.0, SVG Export Plug-In . SVG Version: 6.00 Build 0)  -->
<svg version="1.1" id="Layer_1" xmlns="http://www.w3.org/2000/svg" xmlns:xlink="http://www.w3.org/1999/xlink" x="0px" y="0px"
	 viewBox="0 0 1000 1000" style="enable-background:new 0 0 1000 1000;" xml:space="preserve">
<style type="text/css">
	.st0{fill:none;stroke:#000000;stroke-width:0.25;stroke-miterlimit:10;}
	.st1{fill-rule:evenodd;clip-rule:evenodd;}
	.st2{fill-rule:evenodd;clip-rule:evenodd;fill:url(#SVGID_1_);}
	.st3{fill-rule:evenodd;clip-rule:evenodd;fill:url(#SVGID_2_);}
	.st4{fill-rule:evenodd;clip-rule:evenodd;fill:#FFFFFF;}
</style>
<g>
	<g>
		<line class="st0" x1="-1968" y1="-2057.5" x2="-1968" y2="-1034.5"/>
	</g>
	<g>
		<line class="st0" x1="-1896" y1="-2057.5" x2="-1896" y2="-1034.5"/>
	</g>
	<g>
		<line class="st0" x1="-1824" y1="-2057.5" x2="-1824" y2="-1034.5"/>
	</g>
	<g>
		<line class="st0" x1="-1752" y1="-2057.5" x2="-1752" y2="-1034.5"/>
	</g>
	<g>
		<line class="st0" x1="-1680" y1="-2057.5" x2="-1680" y2="-1034.5"/>
	</g>
	<g>
		<line class="st0" x1="-1608" y1="-2057.5" x2="-1608" y2="-1034.5"/>
	</g>
	<g>
		<line class="st0" x1="-1536" y1="-2057.5" x2="-1536" y2="-1034.5"/>
	</g>
	<g>
		<line class="st0" x1="-1464" y1="-2057.5" x2="-1464" y2="-1034.5"/>
	</g>
	<g>
		<line class="st0" x1="-1392" y1="-2057.5" x2="-1392" y2="-1034.5"/>
	</g>
	<g>
		<line class="st0" x1="-1320" y1="-2057.5" x2="-1320" y2="-1034.5"/>
	</g>
	<g>
		<line class="st0" x1="-1248" y1="-2057.5" x2="-1248" y2="-1034.5"/>
	</g>
	<g>
		<line class="st0" x1="-1176" y1="-2057.5" x2="-1176" y2="-1034.5"/>
	</g>
	<g>
		<line class="st0" x1="-1104" y1="-2057.5" x2="-1104" y2="-1034.5"/>
	</g>
	<g>
		<line class="st0" x1="-1024.5" y1="-1974" x2="-2047.5" y2="-1974"/>
	</g>
	<g>
		<line class="st0" x1="-1024.5" y1="-1902" x2="-2047.5" y2="-1902"/>
	</g>
	<g>
		<line class="st0" x1="-1024.5" y1="-1830" x2="-2047.5" y2="-1830"/>
	</g>
	<g>
		<line class="st0" x1="-1024.5" y1="-1758" x2="-2047.5" y2="-1758"/>
	</g>
	<g>
		<line class="st0" x1="-1024.5" y1="-1686" x2="-2047.5" y2="-1686"/>
	</g>
	<g>
		<line class="st0" x1="-1024.5" y1="-1614" x2="-2047.5" y2="-1614"/>
	</g>
	<g>
		<line class="st0" x1="-1024.5" y1="-1542" x2="-2047.5" y2="-1542"/>
	</g>
	<g>
		<line class="st0" x1="-1024.5" y1="-1470" x2="-2047.5" y2="-1470"/>
	</g>
	<g>
		<line class="st0" x1="-1024.5" y1="-1398" x2="-2047.5" y2="-1398"/>
	</g>
	<g>
		<line class="st0" x1="-1024.5" y1="-1326" x2="-2047.5" y2="-1326"/>
	</g>
	<g>
		<line class="st0" x1="-1024.5" y1="-1254" x2="-2047.5" y2="-1254"/>
	</g>
	<g>
		<line class="st0" x1="-1024.5" y1="-1182" x2="-2047.5" y2="-1182"/>
	</g>
	<g>
		<line class="st0" x1="-1024.5" y1="-1110" x2="-2047.5" y2="-1110"/>
	</g>
</g>
<path class="st1" d="M-1752-1830L-1752-1830c0,39.76,32.24,72,72,72h16.09c30.88,0,55.91,25.03,55.91,55.91V-1542
	c0,39.76,32.24,72,72,72h0c39.76,0,72-32.24,72-72v-160.09c0-30.88,25.03-55.91,55.91-55.91h16.09c39.76,0,72-32.24,72-72v0
	c0-39.76-32.24-72-72-72h-288C-1719.76-1902-1752-1869.76-1752-1830z"/>
<circle class="st1" cx="-1536" cy="-1367" r="72"/>
<circle class="st1" cx="-516" cy="-1511" r="72"/>
<g>
	<g>
		<line class="st0" x1="-948" y1="-2057.5" x2="-948" y2="-1034.5"/>
	</g>
	<g>
		<line class="st0" x1="-876" y1="-2057.5" x2="-876" y2="-1034.5"/>
	</g>
	<g>
		<line class="st0" x1="-804" y1="-2057.5" x2="-804" y2="-1034.5"/>
	</g>
	<g>
		<line class="st0" x1="-732" y1="-2057.5" x2="-732" y2="-1034.5"/>
	</g>
	<g>
		<line class="st0" x1="-660" y1="-2057.5" x2="-660" y2="-1034.5"/>
	</g>
	<g>
		<line class="st0" x1="-588" y1="-2057.5" x2="-588" y2="-1034.5"/>
	</g>
	<g>
		<line class="st0" x1="-516" y1="-2057.5" x2="-516" y2="-1034.5"/>
	</g>
	<g>
		<line class="st0" x1="-444" y1="-2057.5" x2="-444" y2="-1034.5"/>
	</g>
	<g>
		<line class="st0" x1="-372" y1="-2057.5" x2="-372" y2="-1034.5"/>
	</g>
	<g>
		<line class="st0" x1="-300" y1="-2057.5" x2="-300" y2="-1034.5"/>
	</g>
	<g>
		<line class="st0" x1="-228" y1="-2057.5" x2="-228" y2="-1034.5"/>
	</g>
	<g>
		<line class="st0" x1="-156" y1="-2057.5" x2="-156" y2="-1034.5"/>
	</g>
	<g>
		<line class="st0" x1="-84" y1="-2057.5" x2="-84" y2="-1034.5"/>
	</g>
	<g>
		<line class="st0" x1="-4.5" y1="-1974" x2="-1027.5" y2="-1974"/>
	</g>
	<g>
		<line class="st0" x1="-4.5" y1="-1902" x2="-1027.5" y2="-1902"/>
	</g>
	<g>
		<line class="st0" x1="-4.5" y1="-1830" x2="-1027.5" y2="-1830"/>
	</g>
	<g>
		<line class="st0" x1="-4.5" y1="-1758" x2="-1027.5" y2="-1758"/>
	</g>
	<g>
		<line class="st0" x1="-4.5" y1="-1686" x2="-1027.5" y2="-1686"/>
	</g>
	<g>
		<line class="st0" x1="-4.5" y1="-1614" x2="-1027.5" y2="-1614"/>
	</g>
	<g>
		<line class="st0" x1="-4.5" y1="-1542" x2="-1027.5" y2="-1542"/>
	</g>
	<g>
		<line class="st0" x1="-4.5" y1="-1470" x2="-1027.5" y2="-1470"/>
	</g>
	<g>
		<line class="st0" x1="-4.5" y1="-1398" x2="-1027.5" y2="-1398"/>
	</g>
	<g>
		<line class="st0" x1="-4.5" y1="-1326" x2="-1027.5" y2="-1326"/>
	</g>
	<g>
		<line class="st0" x1="-4.5" y1="-1254" x2="-1027.5" y2="-1254"/>
	</g>
	<g>
		<line class="st0" x1="-4.5" y1="-1182" x2="-1027.5" y2="-1182"/>
	</g>
	<g>
		<line class="st0" x1="-4.5" y1="-1110" x2="-1027.5" y2="-1110"/>
	</g>
</g>
<path class="st1" d="M-732-1830L-732-1830c0,39.76,32.24,72,72,72h6.77c36.03,0,65.23,29.21,65.23,65.23v6.77
	c0,39.76,32.24,72,72,72h0c39.76,0,72-32.24,72-72v-6.77c0-36.03,29.21-65.23,65.23-65.23h6.77c39.76,0,72-32.24,72-72v0
	c0-39.76-32.24-72-72-72h-288C-699.76-1902-732-1869.76-732-1830z"/>
<g>
	<g>
		<line class="st0" x1="72" y1="-2057.5" x2="72" y2="-1034.5"/>
	</g>
	<g>
		<line class="st0" x1="144" y1="-2057.5" x2="144" y2="-1034.5"/>
	</g>
	<g>
		<line class="st0" x1="216" y1="-2057.5" x2="216" y2="-1034.5"/>
	</g>
	<g>
		<line class="st0" x1="288" y1="-2057.5" x2="288" y2="-1034.5"/>
	</g>
	<g>
		<line class="st0" x1="360" y1="-2057.5" x2="360" y2="-1034.5"/>
	</g>
	<g>
		<line class="st0" x1="432" y1="-2057.5" x2="432" y2="-1034.5"/>
	</g>
	<g>
		<line class="st0" x1="504" y1="-2057.5" x2="504" y2="-1034.5"/>
	</g>
	<g>
		<line class="st0" x1="576" y1="-2057.5" x2="576" y2="-1034.5"/>
	</g>
	<g>
		<line class="st0" x1="648" y1="-2057.5" x2="648" y2="-1034.5"/>
	</g>
	<g>
		<line class="st0" x1="720" y1="-2057.5" x2="720" y2="-1034.5"/>
	</g>
	<g>
		<line class="st0" x1="792" y1="-2057.5" x2="792" y2="-1034.5"/>
	</g>
	<g>
		<line class="st0" x1="864" y1="-2057.5" x2="864" y2="-1034.5"/>
	</g>
	<g>
		<line class="st0" x1="936" y1="-2057.5" x2="936" y2="-1034.5"/>
	</g>
	<g>
		<line class="st0" x1="1015.5" y1="-1974" x2="-7.5" y2="-1974"/>
	</g>
	<g>
		<line class="st0" x1="1015.5" y1="-1902" x2="-7.5" y2="-1902"/>
	</g>
	<g>
		<line class="st0" x1="1015.5" y1="-1830" x2="-7.5" y2="-1830"/>
	</g>
	<g>
		<line class="st0" x1="1015.5" y1="-1758" x2="-7.5" y2="-1758"/>
	</g>
	<g>
		<line class="st0" x1="1015.5" y1="-1686" x2="-7.5" y2="-1686"/>
	</g>
	<g>
		<line class="st0" x1="1015.5" y1="-1614" x2="-7.5" y2="-1614"/>
	</g>
	<g>
		<line class="st0" x1="1015.5" y1="-1542" x2="-7.5" y2="-1542"/>
	</g>
	<g>
		<line class="st0" x1="1015.5" y1="-1470" x2="-7.5" y2="-1470"/>
	</g>
	<g>
		<line class="st0" x1="1015.5" y1="-1398" x2="-7.5" y2="-1398"/>
	</g>
	<g>
		<line class="st0" x1="1015.5" y1="-1326" x2="-7.5" y2="-1326"/>
	</g>
	<g>
		<line class="st0" x1="1015.5" y1="-1254" x2="-7.5" y2="-1254"/>
	</g>
	<g>
		<line class="st0" x1="1015.5" y1="-1182" x2="-7.5" y2="-1182"/>
	</g>
	<g>
		<line class="st0" x1="1015.5" y1="-1110" x2="-7.5" y2="-1110"/>
	</g>
</g>
<circle class="st1" cx="504" cy="-1447" r="72"/>
<path class="st1" d="M288-1830L288-1830c0,39.76,32.24,72,72,72h20.09c28.67,0,51.91,23.24,51.91,51.91v92.09
	c0,39.76,32.24,72,72,72h0c39.76,0,72-32.24,72-72v-92.09c0-28.67,23.24-51.91,51.91-51.91H648c39.76,0,72-32.24,72-72v0
	c0-39.76-32.24-72-72-72H360C320.24-1902,288-1869.76,288-1830z"/>
<g>
	
		<linearGradient id="SVGID_1_" gradientUnits="userSpaceOnUse" x1="719.405" y1="-334.5" x2="261.9965" y2="-334.5" gradientTransform="matrix(-1 0 0 1 1000 0)">
		<stop  offset="0.0413" style="stop-color:#F2F240"/>
		<stop  offset="0.2273" style="stop-color:#19FA92"/>
		<stop  offset="0.3743" style="stop-color:#3F96F2;stop-opacity:0.9"/>
		<stop  offset="0.4942" style="stop-color:#6E2CF1"/>
		<stop  offset="0.6237" style="stop-color:#C05AD9"/>
		<stop  offset="0.7795" style="stop-color:#F44A4F"/>
		<stop  offset="0.9423" style="stop-color:#FCE63C"/>
	</linearGradient>
	<circle class="st2" cx="500" cy="-334.5" r="72"/>
	
		<linearGradient id="SVGID_2_" gradientUnits="userSpaceOnUse" x1="719.405" y1="-609.5" x2="261.9965" y2="-609.5" gradientTransform="matrix(-1 0 0 1 1000 0)">
		<stop  offset="0.0413" style="stop-color:#F2F240"/>
		<stop  offset="0.2273" style="stop-color:#19FA92"/>
		<stop  offset="0.3743" style="stop-color:#3F96F2;stop-opacity:0.9"/>
		<stop  offset="0.4942" style="stop-color:#6E2CF1"/>
		<stop  offset="0.6237" style="stop-color:#C05AD9"/>
		<stop  offset="0.7795" style="stop-color:#F44A4F"/>
		<stop  offset="0.9423" style="stop-color:#FCE63C"/>
	</linearGradient>
	<path class="st3" d="M716-717.5L716-717.5c0,39.76-32.24,72-72,72h-20.09c-28.67,0-51.91,23.24-51.91,51.91v92.09
		c0,39.76-32.24,72-72,72h0c-39.76,0-72-32.24-72-72v-92.09c0-28.67-23.24-51.91-51.91-51.91H356c-39.76,0-72-32.24-72-72v0
		c0-39.76,32.24-72,72-72h288C683.76-789.5,716-757.26,716-717.5z"/>
</g>
<g>
	<circle class="st1" cx="500" cy="692" r="72"/>
	<path class="st1" d="M716,309L716,309c0,39.76-32.24,72-72,72h-20.09c-28.67,0-51.91,23.24-51.91,51.91V525c0,39.76-32.24,72-72,72
		h0c-39.76,0-72-32.24-72-72v-92.09c0-28.67-23.24-51.91-51.91-51.91H356c-39.76,0-72-32.24-72-72v0c0-39.76,32.24-72,72-72h288
		C683.76,237,716,269.24,716,309z"/>
</g>
<rect y="1029" class="st1" width="1000" height="1000"/>
<g>
	<circle class="st4" cx="500" cy="1719" r="72"/>
	<path class="st4" d="M716,1336L716,1336c0,39.76-32.24,72-72,72h-20.09c-28.67,0-51.91,23.24-51.91,51.91V1552
		c0,39.76-32.24,72-72,72h0c-39.76,0-72-32.24-72-72v-92.09c0-28.67-23.24-51.91-51.91-51.91H356c-39.76,0-72-32.24-72-72v0
		c0-39.76,32.24-72,72-72h288C683.76,1264,716,1296.24,716,1336z"/>
</g>
</svg>
